<?xml version="1.0" standalone="no"?>
<!DOCTYPE svg PUBLIC "-//W3C//DTD SVG 20010904//EN"
 "http://www.w3.org/TR/2001/REC-SVG-20010904/DTD/svg10.dtd">
<svg version="1.0" xmlns="http://www.w3.org/2000/svg"
 width="400.000000pt" height="400.000000pt" viewBox="0 0 400.000000 400.000000"
 preserveAspectRatio="xMidYMid meet">
<metadata>
Created by potrace 1.11, written by Peter Selinger 2001-2013
</metadata>
<g transform="translate(0.000000,400.000000) scale(0.100000,-0.100000)"
fill="#000000" stroke="none">
<path d="M1839 3895 c-2 -1 -31 -6 -64 -9 -100 -9 -275 -48 -370 -81 -22 -8
-60 -22 -85 -30 -86 -31 -267 -125 -370 -193 -181 -120 -342 -273 -481 -458
-38 -51 -69 -95 -69 -98 0 -3 -12 -22 -26 -43 -94 -140 -210 -445 -245 -648
-34 -200 -34 -493 1 -673 55 -293 173 -563 351 -802 73 -98 254 -284 349 -357
279 -216 609 -351 955 -391 78 -9 351 -9 436 0 207 22 460 101 662 206 82 43
203 117 217 132 3 3 21 17 40 30 95 66 295 266 378 378 209 282 325 573 369
927 10 77 10 360 0 445 -16 132 -79 383 -113 449 -8 14 -14 29 -14 33 0 17
-74 168 -124 252 -82 139 -169 250 -290 372 -212 211 -343 297 -681 445 -60
26 -265 80 -360 94 -27 4 -61 10 -75 12 -31 5 -386 13 -391 8z"/>
</g>
</svg>
