<?xml version="1.0" encoding="utf-8"?>
<!-- Generator: Adobe Illustrator 16.0.0, SVG Export Plug-In . SVG Version: 6.00 Build 0)  -->
<!DOCTYPE svg PUBLIC "-//W3C//DTD SVG 1.1//EN" "http://www.w3.org/Graphics/SVG/1.1/DTD/svg11.dtd">
<svg version="1.1" id="Layer_1" xmlns="http://www.w3.org/2000/svg" xmlns:xlink="http://www.w3.org/1999/xlink" x="0px" y="0px"
	 width="465.855px" height="279.027px" viewBox="0 0 465.855 279.027" enable-background="new 0 0 465.855 279.027"
	 xml:space="preserve">
<g>
	<g>
		<path fill="none" d="M299.187,94.075c0.05,0.037,0.1,0.07,0.148,0.107c-0.068-0.051-0.149-0.113-0.227-0.17
			C299.134,94.032,299.162,94.058,299.187,94.075z"/>
		<path fill="#5981C1" d="M299.464,94.272c-0.043-0.027-0.086-0.061-0.129-0.09C299.391,94.222,299.439,94.255,299.464,94.272z"/>
		<linearGradient id="SVGID_1_" gradientUnits="userSpaceOnUse" x1="299.3477" y1="94.2393" x2="299.4527" y2="94.2167">
			<stop  offset="0" style="stop-color:#EC407A"/>
			<stop  offset="1" style="stop-color:#EF5451"/>
		</linearGradient>
		<path fill="url(#SVGID_1_)" d="M299.464,94.272c-0.043-0.027-0.086-0.061-0.129-0.09
			C299.391,94.222,299.439,94.255,299.464,94.272z"/>
		<path fill="#5981C1" d="M299.109,94.013c-0.061-0.045-0.125-0.1-0.188-0.15c-0.006,0-0.012,0-0.017,0
			C298.941,93.888,299.021,93.948,299.109,94.013z"/>
		<linearGradient id="SVGID_2_" gradientUnits="userSpaceOnUse" x1="298.9243" y1="93.9551" x2="299.0885" y2="93.9198">
			<stop  offset="0" style="stop-color:#EC407A"/>
			<stop  offset="1" style="stop-color:#EF5451"/>
		</linearGradient>
		<path fill="url(#SVGID_2_)" d="M299.109,94.013c-0.061-0.045-0.125-0.1-0.188-0.15c-0.006,0-0.012,0-0.017,0
			C298.941,93.888,299.021,93.948,299.109,94.013z"/>
		<g>
			<path fill="none" d="M299.335,94.183c-0.068-0.051-0.149-0.113-0.227-0.17c0.025,0.02,0.053,0.045,0.078,0.063
				C299.237,94.112,299.287,94.146,299.335,94.183z"/>
			<path fill="none" d="M299.109,94.013c-0.061-0.045-0.125-0.1-0.188-0.15c-0.006,0-0.012,0-0.017,0
				C298.941,93.888,299.021,93.948,299.109,94.013z"/>
			<path fill="#FFFFFF" d="M387.904,60.325c-23.221,0.482-46.457,0.137-69.686,0.137c-0.832,0-1.662,0-2.492,0
				c-0.848-0.686-1.648-1.473-2.393-2.381c1.04,0,2.083,0,3.125,0c23.229,0,46.467,0.346,69.688-0.137
				c12.979-0.27,24.666-4.986,34.135-14.01c0.049-0.049,0.092-0.098,0.143-0.146c6.462-6.246,8.521-13.922,6.853-22.738
				c-0.59-3.121-1.9-4.01-5.127-4.004c-49.64,0.111-99.281-0.008-148.922,0.121c-19.465,0.051-38.976-0.158-58.381,1.055
				c-21.326,1.33-39.695,12.008-51.378,27.813c-2.694,3.646-5.028,7.564-6.966,11.705c-7.006,10.721-11.091,23.482-11.195,37.148
				c-0.234,30.811,15.381,53.258,44.67,63.791c15.326,5.512,31.232,7.352,47.479,6.008c22.292-1.842,40.764-11.088,55.256-27.891
				c0.414-0.48,0.736-1.064,1.288-1.914c-14.052,14.867-31.596,23.104-52.497,24.832c-16.247,1.344-32.152-0.498-47.478-6.01
				c-29.291-10.533-44.904-32.979-44.67-63.791c0.037-4.871,0.586-9.625,1.584-14.219c-0.577,3.51-0.895,7.102-0.923,10.762
				c-0.235,30.811,15.38,53.26,44.669,63.793c15.325,5.508,31.231,7.352,47.479,6.008c20.9-1.727,38.443-9.965,52.496-24.834
				c0.936-0.99,1.855-2.01,2.76-3.059c0.455-0.527,0.783-1.158,1.439-2.15c1.44-0.049,2.885-0.107,4.338-0.174
				c10.184-0.473,18.77-3.617,26.137-10.279c1.85-1.672,3.484-3.514,4.795-5.68c-0.246,0.238-0.492,0.477-0.748,0.707
				c-7.367,6.662-15.941,10.352-26.135,10.277c-15.69-0.113-31.383-0.029-48.054-0.029c-0.581-0.477-1.224-1.072-2.174-1.863
				c16.689,0,32.396-0.086,48.101,0.027c10.194,0.074,18.77-3.615,26.137-10.275c0.256-0.23,0.5-0.469,0.748-0.707
				c2.633-2.537,4.779-5.486,6.063-9.34c-1.889,0-3.76,0.004-5.615,0.01c4.4-0.016,8.803-0.039,13.203-0.098
				c9.516-0.123,17.9-3.508,24.648-10.227c1.414-1.41,2.611-2.924,3.594-4.545c-6.668,6.43-14.889,9.676-24.191,9.799
				c-16.191,0.207-32.389,0.064-48.582,0.068c-0.608,0-1.428-0.016-2.203-0.023c0.063,0.051,0.127,0.105,0.188,0.15
				c0.077,0.057,0.158,0.119,0.227,0.17c-0.049-0.037-0.099-0.07-0.148-0.107c-0.025-0.018-0.053-0.043-0.078-0.063
				c-0.088-0.064-0.168-0.125-0.204-0.15c0.005,0,0.011,0,0.017,0c-0.692-0.551-1.439-1.363-1.896-2.195
				c1.528-0.021,2.192,0.031,3.131,0.031c16.193,0,32.389,0.137,48.578-0.072c9.305-0.121,17.525-3.369,24.195-9.797
				c0.148-0.145,0.305-0.281,0.451-0.43c4.336-4.32,6.66-9.59,6.889-16.051c1.197-0.02,2.393-0.025,3.588-0.051
				c12.979-0.27,24.666-4.984,34.135-14.01c1.691-1.609,3.08-3.32,4.191-5.117c-0.049,0.047-0.094,0.096-0.143,0.145
				C412.57,55.339,400.882,60.056,387.904,60.325z M278.668,80.737c-1.414,15.865-15.19,30.211-31.294,32.625
				c-2.123,0.32-4.25,0.459-6.39,0.461c-6.478,0.014-12.955,0.012-19.432,0c-3.125-0.002-4.904-1.482-4.927-4.043
				c-0.024-2.59,1.845-4.115,5.056-4.115c6.597-0.004,13.194,0.012,19.79-0.01c14.813-0.055,27.67-11.662,28.977-26.133
				c1.289-14.271-8.922-27.531-23.359-30.35c-1.871-0.365-3.754-0.578-5.658-0.58c-10.816-0.012-21.632-0.014-32.447-0.006
				c-3.204,0.002-4.821,1.596-4.821,4.729c-0.004,23.707,0.008,47.412-0.031,71.119c-0.002,1.258,0.227,1.695,1.621,1.643
				c3.084-0.123,6.181-0.115,9.268,0c1.398,0.055,1.764-0.404,1.617-1.672c-0.1-0.863-0.057-1.75-0.004-2.625
				c0.137-2.256,1.981-3.928,4.225-3.869c2.154,0.053,3.947,1.738,3.998,3.91c0.066,2.744,0.051,5.49,0.012,8.234
				c-0.035,2.42-1.615,4.139-4.104,4.166c-6.952,0.078-13.908,0.088-20.859-0.006c-2.655-0.039-4.027-1.807-4.03-4.758
				c-0.011-12.846-0.005-25.689-0.005-38.537c0.003,0,0.005,0,0.006,0c0-12.496,0-24.99,0-37.486
				c0.002-7.873,5.248-12.984,13.294-12.979c10.638,0.01,21.275-0.002,31.912,0.004C263.369,40.478,280.608,58.958,278.668,80.737z
				 M241.437,69.013c-5.105-0.105-10.219,0.002-15.328-0.051c-1.071-0.012-1.274,0.379-1.249,1.318
				c0.059,2.219,0.037,4.438,0.012,6.654c-0.029,2.578-1.703,4.268-4.158,4.25c-2.377-0.016-4.059-1.668-4.082-4.143
				c-0.041-4.027-0.041-8.057,0-12.084c0.023-2.199,1.465-4.045,3.611-4.061c7.954-0.047,15.948-0.654,23.856,0.246
				c8.697,0.99,14.587,8.793,13.912,17.627c-0.609,7.977-7.777,14.51-16.121,14.643c-3.326,0.053-6.656,0.008-9.982,0.01
				c-3.625,0.002-7.249,0.021-10.874-0.006c-2.662-0.018-4.382-1.609-4.407-4.004c-0.024-2.445,1.762-4.096,4.505-4.102
				c6.653-0.018,13.308-0.006,19.964-0.014c4.861-0.008,8.579-3.385,8.703-7.887C249.927,72.813,246.338,69.112,241.437,69.013z"/>
		</g>
	</g>
	<g>
		<path fill="#FFFFFF" d="M76.415,182.438c-0.101,1.109-0.705,1.613-1.814,1.613H46.977l-2.924,16.332h23.49
			c1.209,0,1.714,0.707,1.613,1.916l-2.017,10.988c-0.202,1.008-0.807,1.613-1.815,1.613H41.432l-4.537,25.104
			c-0.1,1.008-0.705,1.611-1.814,1.611h-12.5c-1.211,0-1.815-0.807-1.613-1.914l12.198-68.555c0.101-1.008,0.807-1.613,1.814-1.613
			h41.737c1.21,0,1.814,0.807,1.613,1.916L76.415,182.438z"/>
		<path fill="#FFFFFF" d="M86.796,242.927c-10.888,0-16.534-8.568-14.315-21.674l8.871-50.105c0.201-1.008,0.807-1.613,1.814-1.613
			h11.695c1.109,0,1.713,0.807,1.512,1.916l-8.871,50.609c-0.908,4.84,0.303,7.561,3.932,7.561c0.705,0,1.411,0,2.016,0
			c1.21-0.1,1.814,0.404,1.613,1.613l-1.613,9.576c-0.201,1.01-0.604,1.514-1.311,1.613
			C90.728,242.726,88.914,242.927,86.796,242.927z"/>
		<path fill="#FFFFFF" d="M130.952,190.706c0.201-1.008,0.807-1.512,1.916-1.512h11.594c1.109,0,1.713,0.705,1.613,1.814
			l-8.066,45.668c-3.225,18.047-10.787,25.305-27.32,25.305c-8.064,0-13.711-2.016-18.146-5.848
			c-0.807-0.604-0.807-1.613-0.201-2.418l6.25-7.965c0.706-1.008,1.512-1.008,2.521-0.404c2.722,1.916,6.351,3.227,10.787,3.227
			c6.352,0,9.679-2.822,10.786-9.879c-2.721,0.906-5.543,1.512-8.568,1.512c-12.4,0-19.154-9.174-16.836-22.785l4.84-26.715
			c0.1-1.008,0.705-1.512,1.814-1.512h11.594c1.209,0,1.814,0.705,1.613,1.814l-5.041,27.824c-1.109,5.949,1.411,8.469,5.947,8.469
			c2.723,0,5.242-0.807,6.756-1.715L130.952,190.706z"/>
		<path fill="#FFFFFF" d="M181.86,169.534c16.938,0,25.809,10.99,22.885,27.02c-2.621,14.314-12.803,23.59-29.033,23.59H164.52
			l-3.527,19.861c-0.203,1.008-0.807,1.611-1.916,1.611h-12.502c-1.109,0-1.713-0.807-1.512-1.914l12.098-68.555
			c0.102-1.008,0.807-1.613,1.814-1.613H181.86z M188.616,195.243c1.209-7.359-2.219-11.191-8.973-11.191h-8.771l-3.83,21.676h8.973
			C183.17,205.728,187.506,201.997,188.616,195.243z"/>
		<path fill="#FFFFFF" d="M218.254,242.927c-14.113,0-21.271-8.064-19.256-19.053c1.715-9.779,9.98-14.113,22.885-14.113
			c3.025,0,6.048,0.301,8.569,0.807l0.201-1.613c0.906-4.941-0.504-7.662-6.854-7.662c-4.436,0-8.973,0.906-11.998,2.318
			c-1.107,0.504-1.914,0.303-2.318-0.807l-3.125-8.268c-0.303-0.906-0.303-1.611,0.303-2.016c4.84-2.924,12.4-4.738,20.565-4.738
			c13.711,0,20.768,9.074,18.045,24.195l-4.535,25.506c-0.203,0.908-0.605,1.613-1.514,1.916
			C233.476,241.415,226.015,242.927,218.254,242.927z M220.17,230.325c2.318,0,5.141-0.402,6.954-0.805l1.412-8.771
			c-1.916-0.404-4.233-0.705-6.452-0.705c-4.939,0-7.561,1.611-8.064,4.637C213.315,228.511,215.735,230.325,220.17,230.325z"/>
		<path fill="#FFFFFF" d="M246.882,241.616c-1.209,0-1.814-0.807-1.613-1.914l7.965-45.77c0.201-0.908,0.705-1.514,1.512-1.916
			c5.848-2.723,12.299-4.234,18.65-4.234c2.723,0,5.445,0.303,8.367,0.908c1.109,0.201,1.613,1.008,1.412,2.016l-1.814,9.879
			c-0.102,1.109-0.908,1.613-2.016,1.514c-1.715-0.303-3.73-0.504-5.848-0.504c-2.621,0-4.84,0.504-6.553,1.209l-6.553,37.201
			c-0.203,1.008-0.807,1.611-1.814,1.611H246.882z"/>
		<path fill="#FFFFFF" d="M327.935,189.194c1.514,0,1.916,1.008,0.908,2.117l-19.76,20.264l13.006,28.025
			c0.504,1.209,0,2.016-1.311,2.016h-12.805c-1.008,0-1.713-0.402-2.016-1.41l-7.561-17.844l-4.438,4.234l-2.418,13.408
			c-0.102,1.008-0.807,1.611-1.814,1.611h-11.695c-1.109,0-1.715-0.807-1.613-1.914l12.199-68.555
			c0.201-1.008,0.807-1.613,1.814-1.613h11.693c1.211,0,1.816,0.807,1.613,1.916l-6.049,34.277l14.316-15.627
			c0.504-0.705,1.209-0.906,2.117-0.906H327.935z"/>
		<path fill="#FFFFFF" d="M323.902,241.616c-1.109,0-1.715-0.807-1.512-1.914l8.67-48.996c0.1-1.008,0.807-1.512,1.814-1.512h11.693
			c1.211,0,1.814,0.705,1.613,1.814l-8.67,48.996c-0.201,1.008-0.807,1.611-1.916,1.611H323.902z M340.636,181.835
			c-5.141,0-8.367-4.135-7.359-9.377c0.807-4.436,4.234-7.359,8.873-7.359c5.141,0,8.367,4.033,7.359,9.477
			C348.703,178.708,345.173,181.835,340.636,181.835z"/>
		<path fill="#FFFFFF" d="M344.871,241.616c-1.211,0-1.814-0.807-1.613-1.914l8.268-46.072c0.201-0.807,0.604-1.412,1.512-1.814
			c6.352-2.42,13.912-4.033,20.465-4.033c15.223,0,22.078,9.678,19.559,23.994l-5.041,28.229c-0.201,1.008-0.807,1.611-1.916,1.611
			h-11.594c-1.109,0-1.713-0.807-1.613-1.914l5.041-29.438c1.211-6.352-1.008-9.275-6.352-9.275c-2.418,0-4.939,0.504-6.451,1.209
			l-6.654,37.807c-0.201,1.107-0.807,1.611-1.916,1.611H344.871z"/>
		<path fill="#FFFFFF" d="M409.894,261.981c-8.166,0-13.51-2.016-18.248-6.049c-0.908-0.705-0.908-1.512-0.201-2.42l6.148-7.863
			c0.707-0.906,1.514-1.008,2.42-0.303c2.824,1.814,6.654,3.125,11.191,3.125c6.049,0,9.678-2.924,10.988-9.777
			c-2.822,0.906-6.15,1.512-8.972,1.512c-13.105,0-20.063-9.074-17.643-22.381l1.715-9.578c2.52-14.215,13.205-20.465,26.21-20.465
			c7.965,0,14.92,1.814,20.264,4.234c0.908,0.504,1.311,1.209,1.109,2.219l-7.359,42.441
			C434.392,254.724,427.435,261.981,409.894,261.981z M416.951,227.2c2.924,0,5.847-0.807,7.359-1.914l3.932-22.986
			c-1.311-0.807-3.73-1.209-6.049-1.209c-5.041,0-8.669,2.418-9.578,7.66l-1.814,10.385
			C409.792,224.782,412.011,227.2,416.951,227.2z"/>
	</g>
</g>
</svg>
